<svg version="1.1" id="Layer_1" xmlns="http://www.w3.org/2000/svg" xmlns:xlink="http://www.w3.org/1999/xlink" x="0px" y="0px"
	 width="100%" viewBox="0 0 512 512" enable-background="new 0 0 512 512" xml:space="preserve">
<path fill="#000000" opacity="1.000000" stroke="none" 
	d="
M1.000000,255.000000 
	C1.000000,170.369339 1.000000,85.738670 1.000000,1.054003 
	C171.558075,1.054003 342.116150,1.054003 513.000000,1.054003 
	C513.000000,85.688400 513.000000,170.377228 512.763550,255.861038 
	C509.030334,253.396530 505.533539,250.137024 501.911316,246.572693 
	C499.225433,243.828033 496.664886,241.388214 493.973267,238.640717 
	C491.596863,236.205093 489.351532,234.077194 486.976471,231.643845 
	C484.933258,229.542221 483.019806,227.746048 480.975525,225.643463 
	C478.910950,223.520340 476.977203,221.703598 474.922821,219.588211 
	C473.236847,217.842834 471.671478,216.396118 469.979004,214.647583 
	C468.269348,212.879913 466.686737,211.414078 464.977386,209.646667 
	C463.270203,207.881012 461.689789,206.416931 459.982208,204.650940 
	C458.274414,202.884354 456.693787,201.419693 454.985077,199.653168 
	C453.274719,197.885208 451.692444,196.419113 449.978943,194.646484 
	C447.914612,192.523071 445.981567,190.706207 443.927643,188.590454 
	C442.241028,186.845184 440.675262,185.398773 438.980896,183.648651 
	C437.253296,181.863678 435.654297,180.382401 433.927307,178.593536 
	C428.879700,173.486755 423.960052,168.687561 418.931335,163.597473 
	C417.896912,162.500961 416.971558,161.695358 415.935059,160.598877 
	C414.895142,159.498428 413.966400,158.688858 412.927002,157.589539 
	C411.890442,156.493011 410.964478,155.686234 409.942932,154.607025 
	C409.238647,153.945938 408.630005,153.557327 407.556305,153.092957 
	C398.729340,153.066986 390.367462,153.116776 381.559784,153.093964 
	C378.409790,153.069855 375.705597,153.118347 372.561859,153.093918 
	C369.748932,153.070023 367.375488,153.119049 364.556549,153.095276 
	C361.406952,153.071915 358.702850,153.121384 355.559174,153.098938 
	C352.745483,153.075378 350.371368,153.123734 347.572449,153.096741 
	C345.425751,153.072296 343.703857,153.123199 341.566833,153.103973 
	C339.752502,153.086197 338.353302,153.138565 336.515167,153.118561 
	C333.695831,153.101181 331.315399,153.156158 328.496521,153.129822 
	C325.654480,153.112350 323.250916,153.176178 320.413757,153.157562 
	C314.862427,152.674942 309.773315,152.351608 306.585236,158.079102 
	C303.837921,160.767441 301.396362,163.328278 298.645935,166.022583 
	C295.875763,168.734116 293.414429,171.312180 290.643677,174.023926 
	C287.542603,177.066238 284.750916,179.974869 281.649597,183.018005 
	C278.545532,186.064041 275.751099,188.975555 272.647644,192.020447 
	C269.877533,194.731888 267.416382,197.309937 264.653320,200.014832 
	C262.886688,201.722672 261.422028,203.303650 259.657043,205.009888 
	C258.201904,206.408737 257.047028,207.682297 255.602676,209.067139 
	C254.509094,210.103378 253.705002,211.028366 252.592468,212.078583 
	C244.820923,219.787323 237.357803,227.370819 229.596527,235.069824 
	C228.164368,236.439392 227.030365,237.693436 225.601898,239.062073 
	C224.189484,240.413895 223.071533,241.651138 221.656891,243.010071 
	C220.225830,244.383438 219.091446,245.635132 217.668228,247.002655 
	C216.571182,248.042053 215.762970,248.965637 214.665894,250.004700 
	C213.568619,251.043839 212.760208,251.967514 211.654907,253.013199 
	C210.222092,254.387772 209.086151,255.640320 207.644562,257.022369 
	C205.542862,259.065552 203.746796,260.979248 201.642532,263.024902 
	C199.185944,265.422760 197.037552,267.688660 194.590454,270.074951 
	C192.846817,271.758972 191.401871,273.322601 189.651505,275.017090 
	C187.549133,277.061188 185.752182,278.974457 183.648727,281.019287 
	C181.526901,283.082825 179.711563,285.014832 177.593658,287.071472 
	C175.512756,289.093353 173.734451,290.990631 171.647446,293.021576 
	C168.877441,295.733093 166.416153,298.310913 163.645172,301.023163 
	C159.876205,304.493835 156.416946,307.830109 152.659515,311.018738 
	C150.590042,309.210754 148.818726,307.550415 146.922791,305.587585 
	C144.900787,303.506805 143.003403,301.728546 140.975922,299.644928 
	C138.932465,297.543274 137.019119,295.746918 134.975830,293.645203 
	C132.933548,291.543884 131.021179,289.747925 128.977753,287.645447 
	C126.912239,285.521240 124.977783,283.703552 122.918716,281.582642 
	C120.877632,279.481842 118.961151,277.684265 116.924149,275.587860 
	C115.237564,273.842560 113.671516,272.396118 111.977600,270.645874 
	C110.246460,268.857269 108.643181,267.372437 106.912697,265.580872 
	C104.008575,262.642487 101.231659,260.010834 98.466934,257.390717 
	C100.014717,255.538300 101.032219,254.320541 102.354233,252.977737 
	C104.142525,251.251236 105.626305,249.649765 107.414246,247.924500 
	C109.518356,245.880295 111.318298,243.959854 113.421402,241.916443 
	C115.519447,239.878174 117.314323,237.962891 119.412003,235.924561 
	C121.490891,233.905914 123.266975,232.010345 125.351074,229.982635 
	C127.787697,227.604309 129.916306,225.358109 132.354248,222.979004 
	C135.146622,220.245575 137.629639,217.645081 140.417618,214.918564 
	C142.853226,212.542648 144.983871,210.292740 147.417480,207.918350 
	C149.515427,205.879578 151.310394,203.965271 153.410706,201.924347 
	C155.847946,199.546753 157.979858,197.295776 160.417435,194.917526 
	C163.186844,192.207596 165.650589,189.624939 168.419434,186.915421 
	C171.165436,184.228333 173.606308,181.668121 176.356598,178.974121 
	C180.148331,175.241531 183.630661,171.642731 187.419174,167.915924 
	C192.599335,163.260239 197.473297,158.732574 202.347275,154.204926 
	C202.004868,153.860092 201.662460,153.515274 201.320053,153.170441 
	C196.210724,153.170441 191.101410,153.170441 185.537567,153.095337 
	C181.397125,153.070663 177.711182,153.121109 173.591400,153.096466 
	C171.109726,153.069534 169.061890,153.117706 166.573547,153.093048 
	C163.754059,153.069168 161.375107,153.118134 158.582886,153.095261 
	C156.775742,153.072006 155.381882,153.120590 153.543259,153.097214 
	C150.399414,153.073059 147.700317,153.120865 144.666519,153.097473 
	C143.880585,153.074051 143.429382,153.121841 142.737152,153.106857 
	C142.496124,153.044098 142.013779,153.168472 141.681580,153.096741 
	C140.901413,153.072601 140.453430,153.120193 139.570251,153.095200 
	C137.078827,153.073257 135.022598,153.123886 132.522949,153.103333 
	C129.385544,153.077103 126.691559,153.122040 123.584351,153.095184 
	C121.777664,153.075302 120.384186,153.127213 118.558533,153.106979 
	C116.089905,153.080032 114.053467,153.125229 111.593391,153.096405 
	C109.453888,153.069489 107.738014,153.116608 105.681335,153.094833 
	C103.862518,154.331451 102.384506,155.636978 100.598503,157.070404 
	C95.184944,162.422379 90.079384,167.646454 84.674728,172.994812 
	C83.233147,174.377487 82.090652,175.635910 80.646523,177.019867 
	C78.881363,178.726440 77.417839,180.307495 75.657745,182.010834 
	C74.225685,183.384872 73.090172,184.636642 71.653076,186.015549 
	C69.887733,187.722794 68.423981,189.302933 66.656281,191.013123 
	C64.865715,192.745865 63.379089,194.348541 61.593323,196.072662 
	C59.845913,197.761505 58.397644,199.328918 56.642250,201.028763 
	C54.157772,203.447540 51.980419,205.733871 49.586109,208.072937 
	C49.101040,208.308167 48.963566,208.561539 48.647842,209.019485 
	C45.878635,211.730545 43.418331,214.307938 40.652477,217.016357 
	C38.549347,219.061508 36.751770,220.975632 34.648693,223.020294 
	C32.546078,225.064529 30.748957,226.978210 28.644409,229.024094 
	C26.209713,231.400467 24.082445,233.644653 21.645945,236.022858 
	C18.542397,239.067810 15.748078,241.978729 12.644080,245.024048 
	C11.042550,246.448578 9.828047,247.829620 8.441759,249.008698 
	C6.016787,251.071182 3.486284,253.009598 1.000000,255.000000 
z"/>
<path fill="#000000" opacity="1.000000" stroke="none" 
	d="
M513.000000,258.000000 
	C513.000000,342.963837 513.000000,427.927704 513.000000,512.945801 
	C342.442078,512.945801 171.884109,512.945801 1.000000,512.945801 
	C1.000000,428.644928 1.000000,344.289459 1.236472,259.138885 
	C5.279517,261.912231 9.086088,265.480652 13.024588,269.358154 
	C15.735632,272.128082 18.314749,274.588959 21.026323,277.358978 
	C23.757919,280.149811 26.357059,282.631500 29.080713,285.416321 
	C31.120600,287.515137 33.035973,289.310760 35.076340,291.410095 
	C37.120155,293.513733 39.038975,295.313721 41.084812,297.419281 
	C43.793003,300.187073 46.374172,302.649292 49.079472,305.413635 
	C51.100201,307.493469 52.996803,309.271210 55.026501,311.357605 
	C57.758881,314.148895 60.358162,316.631500 63.077965,319.412994 
	C64.763641,321.157410 66.328804,322.602936 68.023766,324.354004 
	C70.066872,326.455902 71.980179,328.252228 74.024124,330.355194 
	C76.088631,332.479279 78.022499,334.296722 80.078415,336.414734 
	C81.785583,338.179382 83.370705,339.643402 85.082733,341.414612 
	C90.931412,347.436035 96.549332,353.261475 102.454811,358.779144 
	C103.776230,360.013824 106.105606,360.169678 108.418198,360.899261 
	C111.577675,360.924561 114.289894,360.872803 117.414337,360.893127 
	C119.217934,360.917328 120.609291,360.869446 122.424232,360.898071 
	C124.565773,360.927063 126.283730,360.879547 128.446365,360.905334 
	C131.591446,360.930725 134.291855,360.882812 137.249603,360.898834 
	C137.678391,360.919586 137.849823,360.876465 138.454681,360.903931 
	C140.938660,360.927063 142.989212,360.879608 145.410202,360.906342 
	C146.531021,360.929321 147.281403,360.878113 148.489029,360.897644 
	C153.300232,360.921234 157.654175,360.874084 162.433075,360.902710 
	C164.582123,360.927429 166.306198,360.876373 168.484222,360.895874 
	C172.620972,360.919159 176.303772,360.871948 180.426178,360.901245 
	C183.242203,360.926758 185.618668,360.875732 188.452942,360.898834 
	C193.273926,360.703339 197.637085,360.433746 202.283737,360.043457 
	C203.080658,359.298218 203.594070,358.673645 204.406357,357.927887 
	C206.150803,356.242554 207.596375,354.678406 209.338409,352.990845 
	C210.771179,351.615662 211.907501,350.363922 213.332245,348.996094 
	C214.428818,347.956818 215.236954,347.033661 216.333221,345.995239 
	C217.427750,344.958282 218.234116,344.036560 219.337524,342.991882 
	C220.771942,341.616028 221.909302,340.363098 223.343170,338.987671 
	C224.774536,337.614014 225.909409,336.362915 227.341248,334.989685 
	C228.774521,333.612579 229.910828,332.357605 231.357422,330.970398 
	C239.458511,322.927124 247.249298,315.016083 255.334106,306.988159 
	C256.452271,305.930634 257.276367,304.990051 258.398865,303.934021 
	C259.833679,302.562256 260.970154,301.305969 262.408112,299.928406 
	C264.174530,298.221710 265.639496,296.636230 267.410034,294.926086 
	C269.824249,292.572754 271.932953,290.344147 274.352051,287.982056 
	C277.812195,284.580566 280.961853,281.312531 284.418274,277.918091 
	C287.521606,274.875092 290.318237,271.958527 293.420715,268.915955 
	C296.186127,266.209808 298.645630,263.629669 301.411560,260.923218 
	C304.162323,258.233002 306.606720,255.669144 309.360596,252.972473 
	C312.484985,249.907196 315.299866,246.974731 318.419983,243.915726 
	C321.165710,241.229019 323.606171,238.668854 326.355743,235.975632 
	C329.147827,233.242432 331.630859,230.642288 334.417999,227.916656 
	C336.828125,225.566483 338.934113,223.341797 341.349030,220.982849 
	C344.120392,218.269424 346.582764,215.690231 349.354675,212.977051 
	C352.479980,209.910126 355.295776,206.977219 358.380737,203.950363 
	C359.094849,203.515457 359.539795,203.174500 360.297546,202.974350 
	C364.056366,206.444519 367.502380,209.773865 371.073975,213.409241 
	C373.452942,215.849442 375.706360,217.983627 378.083252,220.419861 
	C380.102112,222.497787 381.997528,224.273697 384.023804,226.355865 
	C386.086243,228.476639 388.017761,230.291138 390.074738,232.409241 
	C392.117584,234.511612 394.035034,236.310410 396.071503,238.405914 
	C397.446686,239.840057 398.702820,240.977509 400.070984,242.404144 
	C401.107819,243.500336 402.032684,244.307327 403.050964,245.383575 
	C403.726868,246.117935 404.309296,246.583054 405.016357,247.347748 
	C406.410095,248.800354 407.679291,249.953400 409.056885,251.391968 
	C410.072876,252.467026 410.980438,253.256577 412.021332,254.354996 
	C415.291443,256.589020 413.245331,258.253693 411.619080,260.046448 
	C410.884949,260.723633 410.420563,261.307434 409.645874,262.024414 
	C404.206390,267.404602 399.077209,272.651611 393.640991,278.025635 
	C391.522247,280.083588 389.710510,282.014496 387.598846,284.065125 
	C385.851471,285.752136 384.404053,287.319427 382.650513,289.016449 
	C380.547424,291.060608 378.750458,292.975037 376.646637,295.019958 
	C374.522675,297.085358 372.705566,299.020233 370.584778,301.079132 
	C368.483398,303.120422 366.685638,305.037689 364.584412,307.079346 
	C362.483063,309.121185 360.685211,311.038605 358.588562,313.076477 
	C356.843811,314.761871 355.397797,316.326813 353.646454,318.021851 
	C351.545471,320.064423 349.749817,321.976929 347.646545,324.021729 
	C345.209869,326.399841 343.080841,328.645599 340.643127,331.025024 
	C337.849762,333.760040 335.365082,336.361389 332.575897,339.089172 
	C329.830200,341.776215 327.389008,344.336823 324.638672,347.030518 
	C319.890411,351.471405 315.451324,355.779205 310.248291,360.828400 
	C316.442657,360.828400 321.215240,360.828400 326.433716,360.900726 
	C329.582916,360.926331 332.286194,360.879639 335.413879,360.905792 
	C337.556122,360.929810 339.273895,360.880981 341.425171,360.905090 
	C343.904755,360.928467 345.950897,360.878906 348.430206,360.902588 
	C350.909271,360.928955 352.955170,360.882141 355.335754,360.906006 
	C356.121277,360.927490 356.572083,360.878265 357.261780,360.890106 
	C357.500641,360.951172 357.977356,360.825012 358.311768,360.897278 
	C359.097229,360.921844 359.548279,360.874115 360.431885,360.901062 
	C362.907196,360.928284 364.949951,360.880798 367.405792,360.904358 
	C369.211121,360.927979 370.603424,360.880615 372.408997,360.905762 
	C374.216492,360.929474 375.610687,360.880707 377.418884,360.904236 
	C379.227997,360.929626 380.623077,360.882721 382.429138,360.909668 
	C384.227600,360.933044 385.615051,360.882629 387.415833,360.904572 
	C389.219482,360.928650 390.609741,360.880371 392.462280,360.906433 
	C397.304199,360.987549 401.691650,361.142548 406.058960,360.913513 
	C407.419891,360.842163 408.726349,359.732056 410.345795,358.985718 
	C411.438263,357.953308 412.242706,357.032593 413.347229,355.987030 
	C414.802490,354.589264 415.957642,353.316376 417.406799,351.929199 
	C418.816833,350.579376 419.932922,349.343903 421.352905,347.980560 
	C423.138855,346.252716 424.620941,344.652710 426.402527,342.932495 
	C428.149384,341.245911 429.596710,339.679504 431.345886,337.985657 
	C433.113312,336.276276 434.578918,334.694336 436.346466,332.984741 
	C438.115326,331.273804 439.582245,329.690491 441.350983,327.979980 
	C443.118500,326.270477 444.584229,324.688171 446.355103,322.975647 
	C448.462097,320.925323 450.263947,319.005188 452.373413,316.954407 
	C456.188782,313.207184 459.696503,309.590607 463.469177,305.878418 
	C464.192230,305.204376 464.650299,304.625977 465.409485,303.925323 
	C467.177856,302.216919 468.645111,300.630768 470.411133,298.923981 
	C472.155670,297.238586 473.601440,295.673828 475.353638,293.977936 
	C477.477020,291.913208 479.293945,289.979614 481.414185,287.921082 
	C483.515289,285.879669 485.313080,283.963287 487.415741,281.920135 
	C489.850037,279.544861 491.979462,277.296356 494.414642,274.920349 
	C497.161011,272.234070 499.601654,269.675293 502.352051,266.981262 
	C504.373474,265.132355 505.995209,263.314575 507.823822,261.736481 
	C509.428741,260.351410 511.265594,259.235046 513.000000,258.000000 
z"/>
<path fill="#FF5BA3" opacity="1.000000" stroke="none" 
	d="
M12.892656,269.049072 
	C9.086088,265.480652 5.279517,261.912231 1.236472,258.671906 
	C1.000000,257.933319 1.000000,256.866669 1.000000,255.399994 
	C3.486284,253.009598 6.016787,251.071182 8.441759,249.008698 
	C9.828047,247.829620 11.042550,246.448578 12.810664,245.414734 
	C13.155504,253.463699 13.024079,261.256378 12.892656,269.049072 
z"/>
<path fill="#FF5BA3" opacity="1.000000" stroke="none" 
	d="
M513.000000,257.666687 
	C511.265594,259.235046 509.428741,260.351410 507.823822,261.736481 
	C505.995209,263.314575 504.373474,265.132355 502.186035,266.590027 
	C501.819092,259.848602 501.927887,253.363068 502.036713,246.877533 
	C505.533539,250.137024 509.030334,253.396530 512.763550,256.328003 
	C513.000000,256.444458 513.000000,256.888885 513.000000,257.666687 
z"/>
<path fill="#FFCE01" opacity="1.000000" stroke="none" 
	d="
M107.970932,360.822205 
	C106.105606,360.169678 103.776230,360.013824 102.454811,358.779144 
	C96.549332,353.261475 90.931412,347.436035 85.167282,341.001160 
	C85.411980,337.489990 85.968941,334.696564 85.938972,331.909424 
	C85.815056,320.388947 85.301498,308.869934 85.327881,297.351288 
	C85.365280,281.024994 85.789719,264.699829 85.944435,248.373199 
	C85.964409,246.265182 85.362022,244.151276 85.045601,241.572113 
	C85.020126,218.359604 84.996971,195.615067 84.973816,172.870529 
	C90.079384,167.646454 95.184944,162.422379 100.841553,157.375427 
	C101.264984,161.149918 100.976303,164.750015 101.037636,168.344162 
	C101.302902,183.888351 101.767838,199.429520 101.970520,214.974258 
	C102.136223,227.681946 102.033463,240.393127 102.049728,253.102768 
	C101.032219,254.320541 100.014717,255.538300 98.466934,257.390717 
	C101.231659,260.010834 104.008575,262.642487 106.901382,266.055908 
	C106.681793,273.442444 106.026756,280.049561 106.075470,286.651489 
	C106.186646,301.717590 106.687813,316.780426 106.931984,331.846161 
	C107.009781,336.646484 106.573761,341.459076 106.742760,346.252991 
	C106.914253,351.117767 107.542641,355.966461 107.970932,360.822205 
z"/>
<path fill="#FFCF00" opacity="1.000000" stroke="none" 
	d="
M255.040070,307.105072 
	C247.249298,315.016083 239.458511,322.927124 231.344833,330.495850 
	C231.012527,300.497498 231.025101,270.841309 230.946503,241.185394 
	C230.941010,239.107452 230.261032,237.031296 229.894684,234.954315 
	C237.357803,227.370819 244.820923,219.787323 252.845917,212.412323 
	C253.604996,214.582504 253.971115,216.543961 253.973892,218.505920 
	C254.011887,245.254242 253.969055,272.002716 254.045242,298.750885 
	C254.053192,301.536530 254.693268,304.320374 255.040070,307.105072 
z"/>
<path fill="#FFCF00" opacity="1.000000" stroke="none" 
	d="
M419.040405,163.888367 
	C423.960052,168.687561 428.879700,173.486755 433.915039,179.067657 
	C434.016968,211.934937 434.003235,244.020477 433.719849,275.952820 
	C432.643188,275.160736 431.836212,274.521820 430.874146,273.603394 
	C429.165009,271.859436 427.610931,270.395020 425.894348,268.651978 
	C424.160950,266.893280 422.590088,265.413177 420.875244,263.674805 
	C420.136139,262.628906 419.541046,261.841309 418.956299,260.581787 
	C418.991241,228.036041 419.015839,195.962204 419.040405,163.888367 
z"/>
<path fill="#FFB633" opacity="1.000000" stroke="none" 
	d="
M284.111511,278.044495 
	C280.961853,281.312531 277.812195,284.580566 274.268921,287.564575 
	C273.583557,284.648193 273.044708,282.016418 273.037964,279.383301 
	C272.963318,250.218018 272.971100,221.052505 272.956604,191.887070 
	C275.751099,188.975555 278.545532,186.064041 281.732330,183.435242 
	C282.416016,186.007919 282.937469,188.295700 282.958771,190.588135 
	C283.050507,200.457550 283.053192,210.328766 282.981140,220.198532 
	C282.853943,237.614227 282.597504,255.029205 282.549988,272.444916 
	C282.544891,274.309998 283.566284,276.177917 284.111511,278.044495 
z"/>
<path fill="#FFB03F" opacity="1.000000" stroke="none" 
	d="
M284.418243,277.918091 
	C283.566284,276.177917 282.544891,274.309998 282.549988,272.444916 
	C282.597504,255.029205 282.853943,237.614227 282.981140,220.198532 
	C283.053192,210.328766 283.050507,200.457550 282.958771,190.588135 
	C282.937469,188.295700 282.416016,186.007919 282.041931,183.300751 
	C284.750916,179.974869 287.542603,177.066238 290.810333,174.414551 
	C291.524231,176.966064 291.964966,179.260284 291.969055,181.555283 
	C292.017212,208.648148 291.975677,235.741211 292.048096,262.833984 
	C292.053650,264.904236 292.743225,266.972656 293.114868,269.041931 
	C290.318237,271.958527 287.521606,274.875092 284.418243,277.918091 
z"/>
<path fill="#FFBC28" opacity="1.000000" stroke="none" 
	d="
M84.674728,172.994812 
	C84.996971,195.615067 85.020126,218.359604 84.686996,241.505798 
	C79.495674,240.704041 81.073967,244.500702 81.067085,246.463516 
	C80.970940,273.906799 81.028076,301.350616 80.956131,328.794067 
	C80.949738,331.234955 80.304764,333.674164 79.956375,336.114166 
	C78.022499,334.296722 76.088631,332.479279 74.278893,330.022034 
	C74.602295,327.421051 74.972366,325.460083 74.975082,323.498566 
	C75.012985,296.084839 74.979042,268.670990 75.043701,241.257385 
	C75.048615,239.172485 75.665871,237.089050 76.285316,235.176575 
	C77.715622,236.097198 78.859085,236.846176 80.948166,238.214539 
	C80.948166,217.013672 80.948166,196.953995 80.948166,176.894333 
	C82.090652,175.635910 83.233147,174.377487 84.674728,172.994812 
z"/>
<path fill="#FF995D" opacity="1.000000" stroke="none" 
	d="
M318.114746,244.042282 
	C315.299866,246.974731 312.484985,249.907196 309.193237,252.582520 
	C308.478424,250.030853 308.037506,247.736694 308.033447,245.441742 
	C307.985291,218.348526 308.026642,191.255112 307.954437,164.161987 
	C307.948914,162.090927 307.261444,160.021683 306.890961,157.951584 
	C309.773315,152.351608 314.862427,152.674942 320.119690,153.352402 
	C316.449982,154.220901 317.004913,157.144531 317.004456,159.751099 
	C316.999664,185.949631 316.978394,212.148239 317.049408,238.346573 
	C317.054535,240.246078 317.743652,242.143753 318.114746,244.042282 
z"/>
<path fill="#FFA152" opacity="1.000000" stroke="none" 
	d="
M306.585236,158.079102 
	C307.261444,160.021683 307.948914,162.090927 307.954437,164.161987 
	C308.026642,191.255112 307.985291,218.348526 308.033447,245.441742 
	C308.037506,247.736694 308.478424,250.030853 308.883759,252.715332 
	C306.606720,255.669144 304.162323,258.233002 301.157074,260.589783 
	C300.397461,258.420227 300.028442,256.457977 300.025665,254.495224 
	C299.987671,227.398514 300.026672,200.301682 299.954529,173.205124 
	C299.948059,170.765579 299.303192,168.327744 298.954803,165.889099 
	C301.396362,163.328278 303.837921,160.767441 306.585236,158.079102 
z"/>
<path fill="#FFA949" opacity="1.000000" stroke="none" 
	d="
M298.645935,166.022583 
	C299.303192,168.327744 299.948059,170.765579 299.954529,173.205124 
	C300.026672,200.301682 299.987671,227.398514 300.025665,254.495224 
	C300.028442,256.457977 300.397461,258.420227 300.850708,260.716125 
	C298.645630,263.629669 296.186127,266.209808 293.420715,268.915924 
	C292.743225,266.972656 292.053650,264.904236 292.048096,262.833984 
	C291.975677,235.741211 292.017212,208.648148 291.969055,181.555283 
	C291.964966,179.260284 291.524231,176.966064 291.119751,174.280853 
	C293.414429,171.312180 295.875763,168.734116 298.645935,166.022583 
z"/>
<path fill="#FFBE26" opacity="1.000000" stroke="none" 
	d="
M272.647644,192.020447 
	C272.971100,221.052505 272.963318,250.218018 273.037964,279.383301 
	C273.044708,282.016418 273.583557,284.648193 273.958466,287.698059 
	C271.932953,290.344147 269.824249,292.572754 267.083435,294.698853 
	C265.967590,292.414398 265.070618,290.234009 265.062592,288.050293 
	C264.954468,258.663147 264.970184,229.275497 264.955231,199.887970 
	C267.416382,197.309937 269.877533,194.731888 272.647644,192.020447 
z"/>
<path fill="#FF995D" opacity="1.000000" stroke="none" 
	d="
M54.893402,311.048920 
	C52.996803,309.271210 51.100201,307.493469 49.089790,304.938049 
	C48.969570,272.402161 48.963154,240.643997 48.956738,208.885818 
	C48.963566,208.561539 49.101040,208.308167 49.768089,208.357162 
	C52.443211,210.741928 54.719398,212.895187 57.106361,215.298096 
	C57.489418,216.020538 57.761700,216.493317 57.791378,217.306793 
	C57.365551,219.614212 57.025356,221.580734 57.022781,223.547684 
	C56.987576,250.477951 57.048801,277.408539 56.907707,304.338104 
	C56.895966,306.578522 55.595245,308.812134 54.893402,311.048920 
z"/>
<path fill="#FF9464" opacity="1.000000" stroke="none" 
	d="
M318.419983,243.915726 
	C317.743652,242.143753 317.054535,240.246078 317.049408,238.346573 
	C316.978394,212.148239 316.999664,185.949631 317.004456,159.751099 
	C317.004913,157.144531 316.449982,154.220901 320.553223,153.434845 
	C323.250916,153.176178 325.654480,153.112350 328.189270,153.323502 
	C324.942413,154.111023 324.975494,156.565491 324.979675,159.184875 
	C325.017487,182.891769 324.977631,206.598846 325.047150,230.305588 
	C325.052826,232.240921 325.698395,234.174377 326.046631,236.108704 
	C323.606171,238.668854 321.165710,241.229019 318.419983,243.915726 
z"/>
<path fill="#FF9760" opacity="1.000000" stroke="none" 
	d="
M204.107483,358.049072 
	C203.594070,358.673645 203.080658,359.298218 202.004578,359.859924 
	C199.618927,357.885010 197.795929,355.972931 195.979309,353.588440 
	C195.990723,327.303101 196.019272,301.490112 195.952850,275.677399 
	C195.947937,273.768890 195.259720,271.862122 194.889160,269.954559 
	C197.037552,267.688660 199.185944,265.422760 201.809692,263.415100 
	C202.522766,265.967957 202.963150,268.262177 202.967224,270.557220 
	C203.015335,297.650574 202.973984,324.744080 203.046082,351.837341 
	C203.051590,353.908844 203.737717,355.978546 204.107483,358.049072 
z"/>
<path fill="#FF8E6B" opacity="1.000000" stroke="none" 
	d="
M326.355713,235.975632 
	C325.698395,234.174377 325.052826,232.240921 325.047150,230.305588 
	C324.977631,206.598846 325.017487,182.891769 324.979675,159.184875 
	C324.975494,156.565491 324.942413,154.111023 328.627686,153.404800 
	C331.315399,153.156158 333.695831,153.101181 336.206970,153.315369 
	C332.984589,154.105667 332.971039,156.530563 332.976410,159.166580 
	C333.019836,180.392273 332.974640,201.618195 333.048584,222.843719 
	C333.054626,224.577744 333.742676,226.309402 334.113861,228.042145 
	C331.630859,230.642288 329.147827,233.242432 326.355713,235.975632 
z"/>
<path fill="#FF8E6B" opacity="1.000000" stroke="none" 
	d="
M48.647842,209.019485 
	C48.963154,240.643997 48.969570,272.402161 48.965668,304.635925 
	C46.374172,302.649292 43.793003,300.187073 41.119312,296.991699 
	C41.351215,293.141785 41.943878,290.026154 41.956627,286.908112 
	C42.040703,266.346710 42.039139,245.784653 41.953720,225.223282 
	C41.942165,222.442627 41.305328,219.664581 40.958023,216.885330 
	C43.418331,214.307938 45.878635,211.730545 48.647842,209.019485 
z"/>
<path fill="#FFBE26" opacity="1.000000" stroke="none" 
	d="
M417.112793,352.043457 
	C415.957642,353.316376 414.802490,354.589264 413.336243,355.511658 
	C413.016663,325.500824 413.030396,295.840363 412.951996,266.180176 
	C412.946503,264.103546 412.259125,262.028687 411.888824,259.953003 
	C413.245331,258.253693 415.291443,256.589020 412.276581,254.022491 
	C412.597382,251.255966 412.965851,249.131104 412.969574,247.005615 
	C413.021454,217.296875 413.023468,187.588074 413.037628,157.879272 
	C413.966400,158.688858 414.895142,159.498428 415.924133,161.074219 
	C416.015778,192.446045 415.987305,223.051682 416.042145,253.657196 
	C416.045929,255.766052 416.671844,257.873810 416.770874,260.323822 
	C416.355896,261.968323 416.025024,263.270935 416.023651,264.573853 
	C415.994232,292.159515 415.983673,319.745209 416.049683,347.330750 
	C416.053467,348.902496 416.742615,350.472595 417.112793,352.043457 
z"/>
<path fill="#FFA152" opacity="1.000000" stroke="none" 
	d="
M204.406357,357.927887 
	C203.737717,355.978546 203.051590,353.908844 203.046082,351.837341 
	C202.973984,324.744080 203.015335,297.650574 202.967224,270.557220 
	C202.963150,268.262177 202.522766,265.967957 202.117889,263.283142 
	C203.746796,260.979248 205.542862,259.065552 207.811722,257.412537 
	C208.522202,259.962891 208.962158,262.252106 208.966904,264.542267 
	C209.028046,294.066193 209.027161,323.590240 209.041962,353.114258 
	C207.596375,354.678406 206.150803,356.242554 204.406357,357.927887 
z"/>
<path fill="#FFBC28" opacity="1.000000" stroke="none" 
	d="
M439.109497,183.952362 
	C440.675262,185.398773 442.241028,186.845184 443.916595,189.065796 
	C444.017578,219.156525 444.032898,248.473099 443.956024,277.789429 
	C443.949585,280.237457 443.321533,282.683868 442.729584,284.990051 
	C441.995270,284.532318 441.513672,284.215546 440.883148,283.631897 
	C439.818939,282.280975 438.903656,281.196930 437.990906,279.637146 
	C437.996063,249.501007 437.976532,219.840546 438.049011,190.180328 
	C438.054077,188.103485 438.740112,186.028305 439.109497,183.952362 
z"/>
<path fill="#FF6F8F" opacity="1.000000" stroke="none" 
	d="
M377.959747,220.117813 
	C375.706360,217.983627 373.452942,215.849442 371.085114,212.934769 
	C370.970673,205.646545 370.970673,199.138824 370.970673,191.464096 
	C368.115601,193.649918 366.564392,194.837524 365.010376,195.554901 
	C365.005768,181.112488 365.003937,167.140274 365.002075,153.168076 
	C367.375488,153.119049 369.748932,153.070023 372.561432,153.551941 
	C373.000519,164.542374 373.000519,175.001831 373.000519,186.620636 
	C375.523712,185.292068 376.755524,184.643463 378.154663,184.378082 
	C378.201233,196.546799 378.080475,208.332306 377.959747,220.117813 
z"/>
<path fill="#FFBE26" opacity="1.000000" stroke="none" 
	d="
M106.022141,153.163742 
	C107.738014,153.116608 109.453888,153.069489 111.589233,153.554199 
	C112.006927,181.335434 111.981010,208.584900 112.051529,235.834106 
	C112.056885,237.903458 112.746620,239.971024 113.118240,242.039429 
	C111.318298,243.959854 109.518356,245.880295 107.159546,247.591431 
	C106.401871,245.751144 106.031357,244.120331 106.029770,242.489136 
	C106.000839,212.714035 106.016190,182.938889 106.022141,153.163742 
z"/>
<path fill="#FFA949" opacity="1.000000" stroke="none" 
	d="
M123.997574,153.166977 
	C126.691559,153.122040 129.385544,153.077103 132.353622,153.472137 
	C132.418259,155.544922 132.028610,157.177521 132.026642,158.810593 
	C132.000824,180.244339 132.029724,201.678131 132.044907,223.111923 
	C129.916306,225.358109 127.787697,227.604309 125.340591,229.557983 
	C124.742691,222.720871 124.328781,216.178513 124.219170,209.631042 
	C124.092575,202.068985 124.279587,194.502243 124.248642,186.937866 
	C124.202591,175.680756 124.084824,164.423920 123.997574,153.166977 
z"/>
<path fill="#FFB03F" opacity="1.000000" stroke="none" 
	d="
M123.584351,153.095184 
	C124.084824,164.423920 124.202591,175.680756 124.248642,186.937866 
	C124.279587,194.502243 124.092575,202.068985 124.219170,209.631042 
	C124.328781,216.178513 124.742691,222.720871 125.032578,229.690125 
	C123.266975,232.010345 121.490891,233.905914 119.157166,235.591614 
	C118.401711,234.247955 118.032784,233.114426 118.031250,231.980392 
	C117.997742,207.323349 117.986710,182.666199 118.047012,158.009262 
	C118.050949,156.398453 118.662041,154.789139 118.990715,153.179123 
	C120.384186,153.127213 121.777664,153.075302 123.584351,153.095184 
z"/>
<path fill="#FF738A" opacity="1.000000" stroke="none" 
	d="
M179.986588,360.824738 
	C176.303772,360.871948 172.620972,360.919159 168.749237,360.626923 
	C169.039474,358.447235 169.899734,356.613800 169.932693,354.765625 
	C170.085861,346.173828 170.009933,337.577942 170.376907,328.833435 
	C171.159027,327.007050 171.928314,325.334106 171.944504,323.653870 
	C172.043396,313.399475 171.971268,303.143402 171.956161,292.887909 
	C173.734451,290.990631 175.512756,289.093353 177.847824,287.405457 
	C178.603424,289.580688 178.967773,291.546051 178.974777,293.512634 
	C179.027466,308.332947 179.009857,323.153564 178.697449,338.207886 
	C178.035126,345.197845 177.610931,351.952209 177.464172,358.712616 
	C177.449280,359.398071 179.105743,360.119843 179.986588,360.824738 
z"/>
<path fill="#FFB633" opacity="1.000000" stroke="none" 
	d="
M118.558533,153.106979 
	C118.662041,154.789139 118.050949,156.398453 118.047012,158.009262 
	C117.986710,182.666199 117.997742,207.323349 118.031250,231.980392 
	C118.032784,233.114426 118.401711,234.247955 118.854370,235.714676 
	C117.314323,237.962891 115.519447,239.878174 113.421402,241.916443 
	C112.746620,239.971024 112.056885,237.903458 112.051529,235.834106 
	C111.981010,208.584900 112.006927,181.335434 112.012863,153.628235 
	C114.053467,153.125229 116.089905,153.080032 118.558533,153.106979 
z"/>
<path fill="#FFBE26" opacity="1.000000" stroke="none" 
	d="
M112.105469,270.949677 
	C113.671516,272.396118 115.237564,273.842560 116.913589,276.063599 
	C117.006790,304.565765 116.989998,332.293365 116.545685,360.017822 
	C111.722900,360.614563 110.920517,358.271790 110.937729,354.425446 
	C111.054443,328.338440 110.977379,302.250580 111.045914,276.163239 
	C111.050476,274.424469 111.736443,272.687500 112.105469,270.949677 
z"/>
<path fill="#FF8278" opacity="1.000000" stroke="none" 
	d="
M349.045135,213.111038 
	C346.582764,215.690231 344.120392,218.269424 341.266418,220.565155 
	C340.586334,218.652435 340.052002,217.023941 340.046844,215.393784 
	C339.986420,196.265152 339.957916,177.135971 340.089264,158.008072 
	C340.100372,156.392502 341.322449,154.785233 341.981964,153.174103 
	C343.703857,153.123199 345.425751,153.072296 347.572998,153.554428 
	C347.998657,171.495880 347.961029,188.904465 348.045593,206.312454 
	C348.056580,208.580215 348.696533,210.844925 349.045135,213.111038 
z"/>
<path fill="#FF8871" opacity="1.000000" stroke="none" 
	d="
M341.566833,153.103973 
	C341.322449,154.785233 340.100372,156.392502 340.089264,158.008072 
	C339.957916,177.135971 339.986420,196.265152 340.046844,215.393784 
	C340.052002,217.023941 340.586334,218.652435 340.957458,220.699402 
	C338.934113,223.341797 336.828125,225.566483 334.417999,227.916656 
	C333.742676,226.309402 333.054626,224.577744 333.048584,222.843719 
	C332.974640,201.618195 333.019836,180.392273 332.976410,159.166580 
	C332.971039,156.530563 332.984589,154.105667 336.645874,153.387726 
	C338.353302,153.138565 339.752502,153.086197 341.566833,153.103973 
z"/>
<path fill="#FF7D7F" opacity="1.000000" stroke="none" 
	d="
M349.354675,212.977051 
	C348.696533,210.844925 348.056580,208.580215 348.045593,206.312454 
	C347.961029,188.904465 347.998657,171.495880 347.997803,153.629791 
	C350.371368,153.123734 352.745483,153.075378 355.561310,153.515656 
	C356.328583,156.455368 356.915222,158.904297 356.935669,161.357941 
	C357.038452,173.689819 356.946289,186.023300 357.049561,198.355164 
	C357.065460,200.254364 357.741058,202.148056 358.111572,204.044312 
	C355.295776,206.977219 352.479980,209.910126 349.354675,212.977051 
z"/>
<path fill="#FF9F56" opacity="1.000000" stroke="none" 
	d="
M465.108337,304.047577 
	C464.650299,304.625977 464.192230,305.204376 463.292542,305.596252 
	C461.224884,303.648407 459.598816,301.887146 458.134155,299.732635 
	C458.530396,297.043488 458.965454,294.747925 458.969482,292.451599 
	C459.016998,265.356018 458.975830,238.260239 459.047943,211.164749 
	C459.053467,209.093201 459.739624,207.023438 460.109375,204.952850 
	C461.689789,206.416931 463.270203,207.881012 464.722809,209.980255 
	C464.399475,211.580887 464.034241,212.546127 464.033142,213.511795 
	C464.000122,242.284119 463.987549,271.056519 464.047546,299.828735 
	C464.050507,301.235748 464.739044,302.641327 465.108337,304.047577 
z"/>
<path fill="#FFB437" opacity="1.000000" stroke="none" 
	d="
M442.982300,285.131012 
	C443.321533,282.683868 443.949585,280.237457 443.956024,277.789429 
	C444.032898,248.473099 444.017578,219.156525 444.037445,189.364685 
	C445.981567,190.706207 447.914612,192.523071 449.723755,194.979187 
	C449.400696,197.582123 449.030884,199.545547 449.028168,201.509476 
	C448.990173,228.957443 449.026672,256.405548 448.953339,283.853363 
	C448.947815,285.923309 448.246490,287.991425 447.627686,289.934692 
	C446.930603,289.511505 446.474487,289.213989 445.875000,288.645111 
	C444.815216,287.292816 443.898743,286.211914 442.982300,285.131012 
z"/>
<path fill="#FFAC44" opacity="1.000000" stroke="none" 
	d="
M447.868591,290.060394 
	C448.246490,287.991425 448.947815,285.923309 448.953339,283.853363 
	C449.026672,256.405548 448.990173,228.957443 449.028168,201.509476 
	C449.030884,199.545547 449.400696,197.582123 449.854980,195.285736 
	C451.692444,196.419113 453.274719,197.885208 454.729553,199.985428 
	C454.402618,202.584290 454.032166,204.548782 454.029449,206.513794 
	C453.991455,233.977539 454.029022,261.441406 453.952698,288.904968 
	C453.946960,290.970367 453.216278,293.033752 452.620026,295.061157 
	C452.417480,295.024292 452.013855,294.938232 451.869537,294.652222 
	C450.439667,292.930939 449.154114,291.495667 447.868591,290.060394 
z"/>
<path fill="#FFC319" opacity="1.000000" stroke="none" 
	d="
M264.653320,200.014832 
	C264.970184,229.275497 264.954468,258.663147 265.062592,288.050293 
	C265.070618,290.234009 265.967590,292.414398 266.777893,294.823547 
	C265.639496,296.636230 264.174530,298.221710 262.125916,299.657562 
	C261.028625,296.960724 260.078583,294.415253 260.068054,291.865936 
	C259.948242,262.872498 259.971985,233.878479 259.957336,204.884613 
	C261.422028,203.303650 262.886688,201.722672 264.653320,200.014832 
z"/>
<path fill="#FFA350" opacity="1.000000" stroke="none" 
	d="
M452.822571,295.098053 
	C453.216278,293.033752 453.946960,290.970367 453.952698,288.904968 
	C454.029022,261.441406 453.991455,233.977539 454.029449,206.513794 
	C454.032166,204.548782 454.402618,202.584290 454.857605,200.287292 
	C456.693787,201.419693 458.274414,202.884354 459.982208,204.650940 
	C459.739624,207.023438 459.053467,209.093201 459.047943,211.164749 
	C458.975830,238.260239 459.016998,265.356018 458.969482,292.451599 
	C458.965454,294.747925 458.530396,297.043488 457.850586,299.563446 
	C455.877930,298.224335 454.350250,296.661194 452.822571,295.098053 
z"/>
<path fill="#FFBE26" opacity="1.000000" stroke="none" 
	d="
M227.044281,335.111816 
	C225.909409,336.362915 224.774536,337.614014 223.176559,338.597015 
	C222.476013,336.039154 222.036591,333.749847 222.031784,331.459595 
	C221.969650,301.935913 221.969437,272.412140 221.953583,242.888382 
	C223.071533,241.651138 224.189484,240.413895 225.856018,239.395966 
	C226.603256,241.740463 226.971344,243.865311 226.975082,245.990829 
	C227.027283,275.697754 227.029724,305.404816 227.044281,335.111816 
z"/>
<path fill="#FF8E6B" opacity="1.000000" stroke="none" 
	d="
M194.590454,270.074951 
	C195.259720,271.862122 195.947937,273.768890 195.952850,275.677399 
	C196.019272,301.490112 195.990723,327.303101 195.692810,353.420776 
	C193.239532,351.486816 191.079117,349.248047 189.171326,346.678467 
	C189.616577,344.887970 189.975571,343.428497 189.976929,341.968658 
	C189.997726,319.607880 189.971893,297.247040 189.956909,274.886230 
	C191.401871,273.322601 192.846817,271.758972 194.590454,270.074951 
z"/>
<path fill="#FF9F56" opacity="1.000000" stroke="none" 
	d="
M132.354248,222.979004 
	C132.029724,201.678131 132.000824,180.244339 132.026642,158.810593 
	C132.028610,157.177521 132.418259,155.544922 132.797058,153.543304 
	C135.022598,153.123886 137.078827,153.073257 139.482086,153.493225 
	C139.553467,155.762207 139.044830,157.559769 139.038345,159.359131 
	C138.977188,176.346313 138.972382,193.333969 139.049713,210.321030 
	C139.056900,211.897125 139.742203,213.470139 140.112656,215.044586 
	C137.629639,217.645081 135.146622,220.245575 132.354248,222.979004 
z"/>
<path fill="#FFB03F" opacity="1.000000" stroke="none" 
	d="
M128.001694,360.832031 
	C126.283730,360.879547 124.565773,360.927063 122.424324,360.440735 
	C122.001083,336.335388 121.970955,312.763733 122.047142,289.192444 
	C122.055016,286.755859 122.696068,284.321350 123.043320,281.885864 
	C124.977783,283.703552 126.912239,285.521240 128.722687,287.978333 
	C128.399414,290.580017 128.030518,292.541962 128.026901,294.504608 
	C127.986115,316.613678 128.001434,338.722870 128.001694,360.832031 
z"/>
<path fill="#FF9760" opacity="1.000000" stroke="none" 
	d="
M465.409485,303.925323 
	C464.739044,302.641327 464.050507,301.235748 464.047546,299.828735 
	C463.987549,271.056519 464.000122,242.284119 464.033142,213.511795 
	C464.034241,212.546127 464.399475,211.580887 464.849548,210.281845 
	C466.686737,211.414078 468.269348,212.879913 469.724243,214.980927 
	C469.400909,216.581207 469.035736,217.546097 469.034454,218.511475 
	C469.000580,243.950531 468.986694,269.389679 469.049072,294.828644 
	C469.052521,296.234833 469.742096,297.639313 470.112366,299.044617 
	C468.645111,300.630768 467.177856,302.216919 465.409485,303.925323 
z"/>
<path fill="#FF8675" opacity="1.000000" stroke="none" 
	d="
M40.652473,217.016357 
	C41.305328,219.664581 41.942165,222.442627 41.953720,225.223282 
	C42.039139,245.784653 42.040703,266.346710 41.956627,286.908112 
	C41.943878,290.026154 41.351215,293.141785 40.992290,296.686096 
	C39.038975,295.313721 37.120155,293.513733 35.243862,291.019958 
	C35.523361,288.865356 35.963123,287.404999 35.966637,285.943634 
	C36.012878,266.695892 36.024876,247.447937 35.952396,228.200394 
	C35.945724,226.428955 35.302071,224.659927 34.954193,222.889771 
	C36.751770,220.975632 38.549347,219.061508 40.652473,217.016357 
z"/>
<path fill="#FFC414" opacity="1.000000" stroke="none" 
	d="
M105.681335,153.094833 
	C106.016190,182.938889 106.000839,212.714035 106.029770,242.489136 
	C106.031357,244.120331 106.401871,245.751144 106.855370,247.715210 
	C105.626305,249.649765 104.142525,251.251236 102.354233,252.977737 
	C102.033463,240.393127 102.136223,227.681946 101.970520,214.974258 
	C101.767838,199.429520 101.302902,183.888351 101.037636,168.344162 
	C100.976303,164.750015 101.264984,161.149918 101.149544,157.247528 
	C102.384506,155.636978 103.862518,154.331451 105.681335,153.094833 
z"/>
<path fill="#FFC414" opacity="1.000000" stroke="none" 
	d="
M111.977608,270.645874 
	C111.736443,272.687500 111.050476,274.424469 111.045914,276.163239 
	C110.977379,302.250580 111.054443,328.338440 110.937729,354.425446 
	C110.920517,358.271790 111.722900,360.614563 116.554329,360.217651 
	C116.990501,360.420685 117.002113,360.821075 117.002113,360.821045 
	C114.289894,360.872803 111.577675,360.924561 108.418198,360.899261 
	C107.542641,355.966461 106.914253,351.117767 106.742760,346.252991 
	C106.573761,341.459076 107.009781,336.646484 106.931984,331.846161 
	C106.687813,316.780426 106.186646,301.717590 106.075470,286.651489 
	C106.026756,280.049561 106.681793,273.442444 107.028587,266.362640 
	C108.643181,267.372437 110.246460,268.857269 111.977608,270.645874 
z"/>
<path fill="#FFA949" opacity="1.000000" stroke="none" 
	d="
M128.446365,360.905334 
	C128.001434,338.722870 127.986115,316.613678 128.026901,294.504608 
	C128.030518,292.541962 128.399414,290.580017 128.853745,288.284851 
	C131.021179,289.747925 132.933548,291.543884 134.721069,293.978424 
	C134.435013,295.084290 134.133972,295.551178 134.132690,296.018890 
	C134.076874,316.260101 133.989777,336.501770 134.143341,356.741638 
	C134.153748,358.113190 135.999893,359.470825 136.992264,360.834930 
	C134.291855,360.882812 131.591446,360.930725 128.446365,360.905334 
z"/>
<path fill="#FF8675" opacity="1.000000" stroke="none" 
	d="
M481.110840,288.046051 
	C479.293945,289.979614 477.477020,291.913208 475.186920,293.587402 
	C474.477112,291.866455 474.037415,290.405304 474.034332,288.943268 
	C473.989716,267.695892 473.978882,246.448303 474.048492,225.201065 
	C474.054321,223.428589 474.696777,221.658218 475.043427,219.886871 
	C476.977203,221.703598 478.910950,223.520340 480.720764,225.976746 
	C480.401306,227.580704 480.037170,228.544678 480.035217,229.509354 
	C479.998505,247.617203 479.980133,265.725220 480.049866,283.832855 
	C480.055267,285.238586 480.741211,286.641724 481.110840,288.046051 
z"/>
<path fill="#FFB633" opacity="1.000000" stroke="none" 
	d="
M117.414337,360.893158 
	C117.002113,360.821075 116.990501,360.420685 116.981857,360.220825 
	C116.989998,332.293365 117.006790,304.565765 117.034126,276.362427 
	C118.961151,277.684265 120.877632,279.481842 122.918716,281.582642 
	C122.696068,284.321350 122.055016,286.755859 122.047142,289.192444 
	C121.970955,312.763733 122.001083,336.335388 122.000748,360.364227 
	C120.609291,360.869446 119.217934,360.917328 117.414337,360.893158 
z"/>
<path fill="#FF9760" opacity="1.000000" stroke="none" 
	d="
M140.417618,214.918564 
	C139.742203,213.470139 139.056900,211.897125 139.049713,210.321030 
	C138.972382,193.333969 138.977188,176.346313 139.038345,159.359131 
	C139.044830,157.559769 139.553467,155.762207 139.917297,153.565796 
	C140.453430,153.120193 140.901413,153.072601 141.789001,153.190674 
	C142.228638,153.356339 142.631226,153.401871 142.631226,153.401871 
	C142.631226,153.401871 142.978165,153.169617 142.978165,153.169617 
	C143.429382,153.121841 143.880585,153.074051 144.753128,153.495544 
	C145.449631,156.262802 145.950485,158.559555 145.962921,160.858932 
	C146.037567,174.679688 145.957397,188.501343 146.049683,202.321869 
	C146.062439,204.231140 146.743088,206.135956 147.114517,208.042831 
	C144.983871,210.292740 142.853226,212.542648 140.417618,214.918564 
z"/>
<path fill="#FF8E6B" opacity="1.000000" stroke="none" 
	d="
M148.031769,360.826904 
	C147.281403,360.878113 146.531021,360.929321 145.577637,360.536499 
	C145.584656,358.122894 145.969177,356.153992 145.976715,354.183655 
	C146.029602,340.362579 145.957657,326.540863 146.051437,312.720184 
	C146.066910,310.441376 146.699844,308.166687 147.047424,305.890106 
	C148.818726,307.550415 150.590042,309.210754 152.809677,311.271240 
	C153.855560,312.439789 154.453110,313.208160 154.804611,314.314209 
	C154.373444,316.451935 154.036453,318.251282 154.028076,320.052185 
	C153.977814,330.858887 153.744186,341.674957 154.120529,352.468781 
	C154.289581,357.317169 153.416107,360.468109 148.031769,360.826904 
z"/>
<path fill="#FF8E6B" opacity="1.000000" stroke="none" 
	d="
M474.922821,219.588211 
	C474.696777,221.658218 474.054321,223.428589 474.048492,225.201065 
	C473.978882,246.448303 473.989716,267.695892 474.034332,288.943268 
	C474.037415,290.405304 474.477112,291.866455 474.880463,293.718536 
	C473.601440,295.673828 472.155670,297.238586 470.411133,298.923950 
	C469.742096,297.639313 469.052521,296.234833 469.049072,294.828644 
	C468.986694,269.389679 469.000580,243.950531 469.034454,218.511475 
	C469.035736,217.546097 469.400909,216.581207 469.851318,215.282745 
	C471.671478,216.396118 473.236847,217.842834 474.922821,219.588211 
z"/>
<path fill="#FF738A" opacity="1.000000" stroke="none" 
	d="
M28.956200,285.113159 
	C26.357059,282.631500 23.757919,280.149811 21.281118,277.025726 
	C21.602604,274.930725 21.970491,273.478607 21.974314,272.025513 
	C22.006016,259.980072 21.970417,247.934418 21.955173,235.888840 
	C24.082445,233.644653 26.209713,231.400467 28.811340,229.414459 
	C29.518082,230.800705 29.949673,231.928207 29.952852,233.056931 
	C29.997665,248.971466 30.010605,264.886292 29.940165,280.800659 
	C29.933796,282.239563 29.299105,283.675720 28.956200,285.113159 
z"/>
<path fill="#FF738A" opacity="1.000000" stroke="none" 
	d="
M358.380737,203.950348 
	C357.741058,202.148056 357.065460,200.254364 357.049561,198.355164 
	C356.946289,186.023300 357.038452,173.689819 356.935669,161.357941 
	C356.915222,158.904297 356.328583,156.455368 356.000916,153.587555 
	C358.702850,153.121384 361.406952,153.071915 364.556549,153.095276 
	C365.003937,167.140274 365.005768,181.112488 364.840668,195.835358 
	C363.110748,198.668533 361.547760,200.751038 359.984772,202.833542 
	C359.539795,203.174500 359.094849,203.515457 358.380737,203.950348 
z"/>
<path fill="#FFC414" opacity="1.000000" stroke="none" 
	d="
M438.980896,183.648651 
	C438.740112,186.028305 438.054077,188.103485 438.049011,190.180328 
	C437.976532,219.840546 437.996063,249.501007 437.735840,279.498596 
	C436.995728,279.516357 436.513214,279.196899 435.895020,278.621521 
	C435.169403,277.612427 434.579468,276.859222 433.989502,276.106018 
	C434.003235,244.020477 434.016968,211.934937 434.043030,179.375275 
	C435.654297,180.382401 437.253296,181.863678 438.980896,183.648651 
z"/>
<path fill="#FFA949" opacity="1.000000" stroke="none" 
	d="
M209.338409,352.990845 
	C209.027161,323.590240 209.028046,294.066193 208.966904,264.542267 
	C208.962158,262.252106 208.522202,259.962891 208.117371,257.283051 
	C209.086151,255.640320 210.222092,254.387772 211.821869,253.403610 
	C212.523544,255.961670 212.963776,258.250885 212.968536,260.541046 
	C213.029785,290.064697 213.028931,319.588440 213.043808,349.112183 
	C211.907501,350.363922 210.771179,351.615662 209.338409,352.990845 
z"/>
<path fill="#FFC414" opacity="1.000000" stroke="none" 
	d="
M227.341248,334.989685 
	C227.029724,305.404816 227.027283,275.697754 226.975082,245.990829 
	C226.971344,243.865311 226.603256,241.740463 226.150482,239.281403 
	C227.030365,237.693436 228.164368,236.439392 229.596527,235.069824 
	C230.261032,237.031296 230.941010,239.107452 230.946503,241.185394 
	C231.025101,270.841309 231.012527,300.497498 231.034515,330.628113 
	C229.910828,332.357605 228.774521,333.612579 227.341248,334.989685 
z"/>
<path fill="#FF7D7F" opacity="1.000000" stroke="none" 
	d="
M29.080715,285.416321 
	C29.299105,283.675720 29.933796,282.239563 29.940165,280.800659 
	C30.010605,264.886292 29.997665,248.971466 29.952852,233.056931 
	C29.949673,231.928207 29.518082,230.800705 29.118767,229.282272 
	C30.748957,226.978210 32.546078,225.064529 34.648697,223.020294 
	C35.302071,224.659927 35.945724,226.428955 35.952396,228.200394 
	C36.024876,247.447937 36.012878,266.695892 35.966637,285.943634 
	C35.963123,287.404999 35.523361,288.865356 35.118866,290.716309 
	C33.035973,289.310760 31.120600,287.515137 29.080715,285.416321 
z"/>
<path fill="#FFA152" opacity="1.000000" stroke="none" 
	d="
M137.249603,360.898834 
	C135.999893,359.470825 134.153748,358.113190 134.143341,356.741638 
	C133.989777,336.501770 134.076874,316.260101 134.132690,296.018890 
	C134.133972,295.551178 134.435013,295.084290 134.850983,294.283813 
	C137.019119,295.746918 138.932465,297.543274 140.721085,299.978149 
	C140.397171,302.583099 140.030991,304.548981 140.025208,306.515930 
	C139.978210,322.506683 140.071671,338.498352 139.910980,354.487640 
	C139.889664,356.609009 138.680359,358.718414 138.021240,360.833374 
	C137.849823,360.876465 137.678391,360.919586 137.249603,360.898834 
z"/>
<path fill="#FFB03F" opacity="1.000000" stroke="none" 
	d="
M408.948456,251.106461 
	C407.679291,249.953400 406.410095,248.800354 405.271423,247.014862 
	C405.601105,244.756210 405.972473,243.130127 405.973816,241.503754 
	C405.997192,212.973038 405.975403,184.442291 406.095978,155.656052 
	C406.826172,154.656601 407.423767,153.912643 408.021362,153.168701 
	C408.630005,153.557327 409.238647,153.945938 409.932709,155.083496 
	C410.010010,185.147095 410.026642,214.461823 409.948608,243.776321 
	C409.942078,246.220581 409.296906,248.663116 408.948456,251.106461 
z"/>
<path fill="#FF995D" opacity="1.000000" stroke="none" 
	d="
M138.454681,360.903931 
	C138.680359,358.718414 139.889664,356.609009 139.910980,354.487640 
	C140.071671,338.498352 139.978210,322.506683 140.025208,306.515930 
	C140.030991,304.548981 140.397171,302.583099 140.851196,300.283508 
	C143.003403,301.728546 144.900787,303.506805 146.922791,305.587585 
	C146.699844,308.166687 146.066910,310.441376 146.051437,312.720184 
	C145.957657,326.540863 146.029602,340.362579 145.976715,354.183655 
	C145.969177,356.153992 145.584656,358.122894 145.207184,360.462280 
	C142.989212,360.879608 140.938660,360.927063 138.454681,360.903931 
z"/>
<path fill="#FF7D7F" opacity="1.000000" stroke="none" 
	d="
M481.414185,287.921082 
	C480.741211,286.641724 480.055267,285.238586 480.049866,283.832855 
	C479.980133,265.725220 479.998505,247.617203 480.035217,229.509354 
	C480.037170,228.544678 480.401306,227.580704 480.851562,226.283142 
	C483.019806,227.746048 484.933258,229.542221 486.721741,231.977219 
	C486.405212,233.413681 486.048645,234.210861 486.046539,235.008987 
	C486.008087,249.450989 485.985413,263.893250 486.055420,278.334961 
	C486.061432,279.573975 486.743103,280.809662 487.110870,282.046906 
	C485.313080,283.963287 483.515289,285.879669 481.414185,287.921082 
z"/>
<path fill="#FF5BA3" opacity="1.000000" stroke="none" 
	d="
M407.556274,153.092941 
	C407.423767,153.912643 406.826172,154.656601 405.826660,155.807495 
	C404.611969,157.129257 403.799194,158.044067 402.717102,159.106689 
	C401.620117,160.150955 400.792419,161.047379 399.685455,162.093246 
	C398.255951,163.468430 397.105682,164.694183 395.675476,166.083496 
	C393.914001,167.805466 392.432465,169.363892 390.669373,171.091171 
	C388.572876,173.148209 386.757996,175.036392 384.697296,177.053467 
	C383.967651,177.454269 383.483826,177.726166 382.837341,177.614273 
	C382.451599,169.209167 382.228577,161.187866 382.005554,153.166565 
	C390.367462,153.116776 398.729340,153.066986 407.556274,153.092941 
z"/>
<path fill="#FF8675" opacity="1.000000" stroke="none" 
	d="
M189.651520,275.017090 
	C189.971893,297.247040 189.997726,319.607880 189.976929,341.968658 
	C189.975571,343.428497 189.616577,344.887970 188.925629,346.564453 
	C187.956299,346.507965 187.485306,346.234680 186.861099,345.688721 
	C185.798019,344.277283 184.888153,343.138489 184.219696,341.662903 
	C184.638199,340.358734 184.967972,339.391602 184.969727,338.423920 
	C185.001282,320.848328 185.020264,303.272614 184.948669,285.697296 
	C184.942139,284.092804 184.301422,282.490845 183.955200,280.887726 
	C185.752182,278.974457 187.549133,277.061188 189.651520,275.017090 
z"/>
<path fill="#FF7D7F" opacity="1.000000" stroke="none" 
	d="
M183.648712,281.019287 
	C184.301422,282.490845 184.942139,284.092804 184.948669,285.697296 
	C185.020264,303.272614 185.001282,320.848328 184.969727,338.423920 
	C184.967972,339.391602 184.638199,340.358734 183.942688,341.503906 
	C181.954269,340.445831 180.484253,339.209930 179.014221,337.974060 
	C179.009857,323.153564 179.027466,308.332947 178.974777,293.512634 
	C178.967773,291.546051 178.603424,289.580688 178.150421,287.280823 
	C179.711563,285.014832 181.526901,283.082825 183.648712,281.019287 
z"/>
<path fill="#FFB633" opacity="1.000000" stroke="none" 
	d="
M221.656891,243.010071 
	C221.969437,272.412140 221.969650,301.935913 222.031784,331.459595 
	C222.036591,333.749847 222.476013,336.039154 222.880066,338.719543 
	C221.909302,340.363098 220.771942,341.616028 219.313324,342.615906 
	C218.991867,335.135468 219.094589,327.906250 218.968582,320.681061 
	C218.750778,308.192566 218.294830,295.707947 218.118240,283.219116 
	C217.947021,271.110016 218.001633,258.997711 217.957062,246.886826 
	C219.091446,245.635132 220.225830,244.383438 221.656891,243.010071 
z"/>
<path fill="#FF8871" opacity="1.000000" stroke="none" 
	d="
M153.988022,153.169174 
	C155.381882,153.120590 156.775742,153.072006 158.583923,153.553284 
	C158.998901,165.840683 158.950348,177.598633 159.049973,189.355347 
	C159.066086,191.254700 159.741226,193.148453 160.111755,195.044800 
	C157.979858,197.295776 155.847946,199.546753 153.156250,201.590790 
	C152.415695,200.749557 152.079117,200.115738 152.077072,199.480850 
	C152.032104,185.489868 151.966141,171.498260 152.096008,157.508530 
	C152.109497,156.056351 153.328415,154.615356 153.988022,153.169174 
z"/>
<path fill="#FF8E6B" opacity="1.000000" stroke="none" 
	d="
M153.543259,153.097214 
	C153.328415,154.615356 152.109497,156.056351 152.096008,157.508530 
	C151.966141,171.498260 152.032104,185.489868 152.077072,199.480850 
	C152.079117,200.115738 152.415695,200.749557 152.850906,201.717422 
	C151.310394,203.965271 149.515427,205.879578 147.417480,207.918350 
	C146.743088,206.135956 146.062439,204.231140 146.049683,202.321869 
	C145.957397,188.501343 146.037567,174.679688 145.962921,160.858932 
	C145.950485,158.559555 145.449631,156.262802 145.087845,153.566757 
	C147.700317,153.120865 150.399414,153.073059 153.543259,153.097214 
z"/>
<path fill="#FF738A" opacity="1.000000" stroke="none" 
	d="
M487.415741,281.920135 
	C486.743103,280.809662 486.061432,279.573975 486.055420,278.334961 
	C485.985413,263.893250 486.008087,249.450989 486.046539,235.008987 
	C486.048645,234.210861 486.405212,233.413681 486.851501,232.282669 
	C489.351532,234.077194 491.596863,236.205093 493.718811,238.974335 
	C493.457062,250.849716 493.304688,262.083679 493.220703,273.318146 
	C493.216400,273.892456 493.799377,274.471161 494.108887,275.047852 
	C491.979462,277.296356 489.850037,279.544861 487.415741,281.920135 
z"/>
<path fill="#FF7D7F" opacity="1.000000" stroke="none" 
	d="
M160.417419,194.917526 
	C159.741226,193.148453 159.066086,191.254700 159.049973,189.355347 
	C158.950348,177.598633 158.998901,165.840683 158.997192,153.625122 
	C161.375107,153.118134 163.754059,153.069168 166.570435,153.551132 
	C167.006088,163.175751 166.942337,172.270172 167.053040,181.362503 
	C167.076141,183.259781 167.743729,185.149231 168.114319,187.042282 
	C165.650589,189.624939 163.186844,192.207596 160.417419,194.917526 
z"/>
<path fill="#FFC414" opacity="1.000000" stroke="none" 
	d="
M259.657043,205.009888 
	C259.971985,233.878479 259.948242,262.872498 260.068054,291.865936 
	C260.078583,294.415253 261.028625,296.960724 261.824463,299.778809 
	C260.970154,301.305969 259.833679,302.562256 258.144379,303.600586 
	C257.393158,301.419220 257.024658,299.456116 257.021942,297.492493 
	C256.984161,270.052612 257.020142,242.612564 256.948669,215.172791 
	C256.943268,213.099579 256.260193,211.028137 255.892166,208.955872 
	C257.047028,207.682297 258.201904,206.408737 259.657043,205.009888 
z"/>
<path fill="#FFB633" opacity="1.000000" stroke="none" 
	d="
M409.056885,251.391968 
	C409.296906,248.663116 409.942078,246.220581 409.948608,243.776321 
	C410.026642,214.461823 410.010010,185.147095 410.028320,155.355942 
	C410.964478,155.686234 411.890442,156.493011 412.927002,157.589539 
	C413.023468,187.588074 413.021454,217.296875 412.969574,247.005615 
	C412.965851,249.131104 412.597382,251.255966 412.143250,253.713623 
	C410.980438,253.256577 410.072876,252.467026 409.056885,251.391968 
z"/>
<path fill="#FFC414" opacity="1.000000" stroke="none" 
	d="
M417.008453,259.982056 
	C416.671844,257.873810 416.045929,255.766052 416.042145,253.657196 
	C415.987305,223.051682 416.015778,192.446045 416.035278,161.365082 
	C416.971558,161.695358 417.896912,162.500961 418.931335,163.597473 
	C419.015839,195.962204 418.991241,228.036041 418.711548,260.453339 
	C417.973785,260.525238 417.491119,260.253632 417.008453,259.982056 
z"/>
<path fill="#FFB03F" opacity="1.000000" stroke="none" 
	d="
M213.332245,348.996094 
	C213.028931,319.588440 213.029785,290.064697 212.968536,260.541046 
	C212.963776,258.250885 212.523544,255.961670 212.118759,253.281601 
	C212.760208,251.967514 213.568619,251.043839 214.832535,250.395447 
	C215.525757,252.960403 215.965836,255.249680 215.970566,257.539825 
	C216.031540,287.063324 216.030441,316.586914 216.045074,346.110504 
	C215.236954,347.033661 214.428818,347.956818 213.332245,348.996094 
z"/>
<path fill="#FFCE01" opacity="1.000000" stroke="none" 
	d="
M255.602676,209.067139 
	C256.260193,211.028137 256.943268,213.099579 256.948669,215.172791 
	C257.020142,242.612564 256.984161,270.052612 257.021942,297.492493 
	C257.024658,299.456116 257.393158,301.419220 257.846008,303.716003 
	C257.276367,304.990051 256.452271,305.930634 255.334106,306.988159 
	C254.693268,304.320374 254.053192,301.536530 254.045242,298.750885 
	C253.969055,272.002716 254.011887,245.254242 253.973892,218.505920 
	C253.971115,216.543961 253.604996,214.582504 253.154358,212.287079 
	C253.705002,211.028366 254.509094,210.103378 255.602676,209.067139 
z"/>
<path fill="#FFB03F" opacity="1.000000" stroke="none" 
	d="
M80.646530,177.019867 
	C80.948166,196.953995 80.948166,217.013672 80.948166,238.214539 
	C78.859085,236.846176 77.715622,236.097198 76.285614,234.925308 
	C75.999390,234.334946 75.999695,234.167480 76.001884,233.531342 
	C75.987282,216.004639 75.970795,198.946609 75.954315,181.888565 
	C77.417839,180.307495 78.881363,178.726440 80.646530,177.019867 
z"/>
<path fill="#FF6796" opacity="1.000000" stroke="none" 
	d="
M21.645943,236.022858 
	C21.970417,247.934418 22.006016,259.980072 21.974314,272.025513 
	C21.970491,273.478607 21.602604,274.930725 21.148661,276.716553 
	C18.314749,274.588959 15.735632,272.128082 13.024584,269.358154 
	C13.024079,261.256378 13.155504,253.463699 13.120345,245.280334 
	C15.748078,241.978729 18.542397,239.067810 21.645943,236.022858 
z"/>
<path fill="#FF6796" opacity="1.000000" stroke="none" 
	d="
M381.559784,153.093964 
	C382.228577,161.187866 382.451599,169.209167 382.677185,177.898804 
	C381.115601,180.376389 379.551483,182.185638 377.987335,183.994873 
	C376.755524,184.643463 375.523712,185.292068 373.000519,186.620636 
	C373.000519,175.001831 373.000519,164.542374 373.000946,153.624878 
	C375.705597,153.118347 378.409790,153.069855 381.559784,153.093964 
z"/>
<path fill="#FFB437" opacity="1.000000" stroke="none" 
	d="
M216.333221,345.995239 
	C216.030441,316.586914 216.031540,287.063324 215.970566,257.539825 
	C215.965836,255.249680 215.525757,252.960403 215.121399,250.279968 
	C215.762970,248.965637 216.571182,248.042053 217.668228,247.002655 
	C218.001633,258.997711 217.947021,271.110016 218.118240,283.219116 
	C218.294830,295.707947 218.750778,308.192566 218.968582,320.681061 
	C219.094589,327.906250 218.991867,335.135468 219.016281,342.738861 
	C218.234116,344.036560 217.427750,344.958282 216.333221,345.995239 
z"/>
<path fill="#FF738A" opacity="1.000000" stroke="none" 
	d="
M168.419434,186.915421 
	C167.743729,185.149231 167.076141,183.259781 167.053040,181.362503 
	C166.942337,172.270172 167.006088,163.175751 167.010956,153.623962 
	C169.061890,153.117706 171.109726,153.069534 173.762863,153.464935 
	C174.580414,156.369919 174.839386,158.828400 174.995575,161.293396 
	C175.371719,167.229935 175.699753,173.169525 176.047195,179.107895 
	C173.606308,181.668121 171.165436,184.228333 168.419434,186.915421 
z"/>
<path fill="#FF6796" opacity="1.000000" stroke="none" 
	d="
M494.414612,274.920349 
	C493.799377,274.471161 493.216400,273.892456 493.220703,273.318146 
	C493.304688,262.083679 493.457062,250.849716 493.849915,239.282043 
	C496.664886,241.388214 499.225433,243.828033 501.911316,246.572693 
	C501.927887,253.363068 501.819092,259.848602 501.876282,266.725342 
	C499.601654,269.675293 497.161011,272.234070 494.414612,274.920349 
z"/>
<path fill="#FF6796" opacity="1.000000" stroke="none" 
	d="
M176.356598,178.974121 
	C175.699753,173.169525 175.371719,167.229935 174.995575,161.293396 
	C174.839386,158.828400 174.580414,156.369919 174.196716,153.540009 
	C177.711182,153.121109 181.397125,153.070663 185.540161,153.549896 
	C186.369186,158.734344 186.741089,163.389145 187.112991,168.043930 
	C183.630661,171.642731 180.148331,175.241531 176.356598,178.974121 
z"/>
<path fill="#FF6796" opacity="1.000000" stroke="none" 
	d="
M171.647461,293.021576 
	C171.971268,303.143402 172.043396,313.399475 171.944504,323.653870 
	C171.928314,325.334106 171.159027,327.007050 170.205566,328.553040 
	C167.782654,326.289886 165.891983,324.157074 164.163513,321.638550 
	C164.202072,314.464844 164.078461,307.676819 163.954849,300.888763 
	C166.416153,298.310913 168.877441,295.733093 171.647461,293.021576 
z"/>
<path fill="#FF9F56" opacity="1.000000" stroke="none" 
	d="
M75.657753,182.010834 
	C75.970795,198.946609 75.987282,216.004639 75.728653,233.371155 
	C74.302849,232.468246 73.152168,231.256836 72.001572,229.573929 
	C71.985985,214.697754 71.970322,200.293091 71.954666,185.888428 
	C73.090172,184.636642 74.225685,183.384872 75.657753,182.010834 
z"/>
<path fill="#FF9464" opacity="1.000000" stroke="none" 
	d="
M71.653076,186.015549 
	C71.970322,200.293091 71.985985,214.697754 71.750275,229.444855 
	C71.007126,229.512161 70.515350,229.237015 69.866310,228.695389 
	C68.808571,227.312134 67.908089,226.195374 67.008713,224.615799 
	C66.993279,213.063004 66.976753,201.973038 66.960220,190.883057 
	C68.423981,189.302933 69.887733,187.722794 71.653076,186.015549 
z"/>
<path fill="#FF5BA3" opacity="1.000000" stroke="none" 
	d="
M163.645172,301.023163 
	C164.078461,307.676819 164.202072,314.464844 163.932007,321.618896 
	C163.538330,321.984863 163.074783,321.953949 162.896454,321.673553 
	C160.162308,318.920959 157.606476,316.448730 155.050644,313.976532 
	C154.453110,313.208160 153.855560,312.439789 153.107849,311.418884 
	C156.416946,307.830109 159.876205,304.493835 163.645172,301.023163 
z"/>
<path fill="#FF8278" opacity="1.000000" stroke="none" 
	d="
M66.656281,191.013123 
	C66.976753,201.973038 66.993279,213.063004 66.746719,224.457184 
	C65.668541,224.160461 64.853432,223.559570 63.889400,222.698074 
	C63.144669,221.636841 62.548862,220.836197 62.196877,219.696976 
	C62.257954,211.556000 62.075207,203.753616 61.892464,195.951218 
	C63.379089,194.348541 64.865715,192.745865 66.656281,191.013123 
z"/>
<path fill="#FF5BA3" opacity="1.000000" stroke="none" 
	d="
M187.419174,167.915924 
	C186.741089,163.389145 186.369186,158.734344 185.994690,153.625000 
	C191.101410,153.170441 196.210724,153.170441 201.320053,153.170441 
	C201.662460,153.515274 202.004868,153.860092 202.347275,154.204926 
	C197.473297,158.732574 192.599335,163.260239 187.419174,167.915924 
z"/>
<path fill="#FF738A" opacity="1.000000" stroke="none" 
	d="
M61.593323,196.072662 
	C62.075207,203.753616 62.257954,211.556000 61.930084,219.536499 
	C60.290970,218.798447 59.162472,217.882278 58.033974,216.966110 
	C57.761700,216.493317 57.489418,216.020538 57.107506,214.827911 
	C56.981705,209.704147 56.965538,205.300232 56.949375,200.896317 
	C58.397644,199.328918 59.845913,197.761505 61.593323,196.072662 
z"/>
<path fill="#FF5BA3" opacity="1.000000" stroke="none" 
	d="
M56.642250,201.028763 
	C56.965538,205.300232 56.981705,209.704147 56.996727,214.578262 
	C54.719398,212.895187 52.443211,210.741928 49.985043,208.304428 
	C51.980419,205.733871 54.157772,203.447540 56.642250,201.028763 
z"/>
<path fill="#FF9F56" opacity="1.000000" stroke="none" 
	d="
M142.737152,153.106857 
	C142.978165,153.169617 142.631226,153.401871 142.631226,153.401871 
	C142.631226,153.401871 142.228638,153.356339 142.121216,153.262405 
	C142.013779,153.168472 142.496124,153.044098 142.737152,153.106857 
z"/>
<path fill="#FFCE01" opacity="1.000000" stroke="none" 
	d="
M410.057739,359.097443 
	C408.726349,359.732056 407.419891,360.842163 406.058960,360.913513 
	C401.691650,361.142548 397.304199,360.987549 392.731323,360.637360 
	C393.025391,358.612823 393.932190,356.932831 393.936981,355.250275 
	C394.009949,329.466583 393.965332,303.682556 393.948059,277.898590 
	C399.077209,272.651611 404.206390,267.404602 409.657837,262.499573 
	C410.005981,294.926819 410.031860,327.012115 410.057739,359.097443 
z"/>
<path fill="#FFA350" opacity="1.000000" stroke="none" 
	d="
M57.791374,217.306793 
	C59.162472,217.882278 60.290970,218.798447 61.686264,219.875092 
	C62.548862,220.836197 63.144669,221.636841 63.646320,223.040085 
	C63.368221,225.605179 63.027042,227.567429 63.023876,229.530212 
	C62.975689,259.391449 62.971741,289.252777 62.957451,319.114075 
	C60.358162,316.631500 57.758881,314.148895 55.026501,311.357605 
	C55.595245,308.812134 56.895966,306.578522 56.907707,304.338104 
	C57.048801,277.408539 56.987576,250.477951 57.022781,223.547684 
	C57.025356,221.580734 57.365551,219.614212 57.791374,217.306793 
z"/>
<path fill="#FFB437" opacity="1.000000" stroke="none" 
	d="
M70.023582,228.961853 
	C70.515350,229.237015 71.007126,229.512161 71.750191,229.916382 
	C73.152168,231.256836 74.302849,232.468246 75.726768,233.839813 
	C75.999695,234.167480 75.999390,234.334946 75.998779,234.753662 
	C75.665871,237.089050 75.048615,239.172485 75.043701,241.257385 
	C74.979042,268.670990 75.012985,296.084839 74.975082,323.498566 
	C74.972366,325.460083 74.602295,327.421051 74.148254,329.715454 
	C71.980179,328.252228 70.066872,326.455902 68.278381,324.020813 
	C68.602119,321.419739 68.971573,319.457642 68.974289,317.495056 
	C69.012199,290.067200 68.977821,262.639221 69.044205,235.211487 
	C69.049255,233.127502 69.682404,231.045029 70.023582,228.961853 
z"/>
<path fill="#FFAC44" opacity="1.000000" stroke="none" 
	d="
M69.866318,228.695374 
	C69.682404,231.045029 69.049255,233.127502 69.044205,235.211487 
	C68.977821,262.639221 69.012199,290.067200 68.974289,317.495056 
	C68.971573,319.457642 68.602119,321.419739 68.148582,323.715271 
	C66.328804,322.602936 64.763641,321.157410 63.077965,319.412994 
	C62.971741,289.252777 62.975689,259.391449 63.023876,229.530212 
	C63.027042,227.567429 63.368221,225.605179 63.795250,223.300674 
	C64.853432,223.559570 65.668541,224.160461 66.745628,224.919983 
	C67.908089,226.195374 68.808571,227.312134 69.866318,228.695374 
z"/>
<path fill="#FFC414" opacity="1.000000" stroke="none" 
	d="
M80.078415,336.414734 
	C80.304764,333.674164 80.949738,331.234955 80.956131,328.794067 
	C81.028076,301.350616 80.970940,273.906799 81.067085,246.463516 
	C81.073967,244.500702 79.495674,240.704041 84.689316,241.973785 
	C85.362022,244.151276 85.964409,246.265182 85.944435,248.373199 
	C85.789719,264.699829 85.365280,281.024994 85.327881,297.351288 
	C85.301498,308.869934 85.815056,320.388947 85.938972,331.909424 
	C85.968941,334.696564 85.411980,337.489990 85.040375,340.694000 
	C83.370705,339.643402 81.785583,338.179382 80.078415,336.414734 
z"/>
<path fill="#FFBC28" opacity="1.000000" stroke="none" 
	d="
M387.002502,360.832214 
	C385.615051,360.882629 384.227600,360.933044 382.601379,360.540710 
	C382.576233,358.465759 382.973846,356.833801 382.975739,355.201355 
	C383.001465,333.096527 382.972229,310.991577 382.956604,288.886719 
	C384.404053,287.319427 385.851471,285.752136 387.852722,284.399414 
	C388.587311,285.248566 388.924988,285.882904 388.926147,286.517792 
	C388.968109,309.844910 389.014404,333.172211 388.908508,356.498810 
	C388.901947,357.946136 387.666290,359.387878 387.002502,360.832214 
z"/>
<path fill="#FF9F56" opacity="1.000000" stroke="none" 
	d="
M426.056854,268.930573 
	C427.610931,270.395020 429.165009,271.859436 430.865723,274.082275 
	C431.022919,295.931488 431.033478,317.022308 431.044037,338.113098 
	C429.596710,339.679504 428.149384,341.245911 426.148621,342.598389 
	C425.397552,341.253296 425.029297,340.122467 425.027527,338.991028 
	C424.993134,317.051697 424.982056,295.112244 425.046539,273.173065 
	C425.050690,271.757935 425.704987,270.344696 426.056854,268.930573 
z"/>
<path fill="#FFAC44" opacity="1.000000" stroke="none" 
	d="
M425.894348,268.651978 
	C425.704987,270.344696 425.050690,271.757935 425.046539,273.173065 
	C424.982056,295.112244 424.993134,317.051697 425.027527,338.991028 
	C425.029297,340.122467 425.397552,341.253296 425.849121,342.718567 
	C424.620941,344.652710 423.138855,346.252716 421.185883,347.590210 
	C420.477997,345.700348 420.037506,344.073364 420.034515,342.445587 
	C419.990082,318.213531 419.980408,293.981293 420.047302,269.749329 
	C420.052643,267.809692 420.680603,265.871765 421.019226,263.933044 
	C422.590088,265.413177 424.160950,266.893280 425.894348,268.651978 
z"/>
<path fill="#FFC319" opacity="1.000000" stroke="none" 
	d="
M387.415833,360.904572 
	C387.666290,359.387878 388.901947,357.946136 388.908508,356.498810 
	C389.014404,333.172211 388.968109,309.844910 388.926147,286.517792 
	C388.924988,285.882904 388.587311,285.248566 388.152649,284.279694 
	C389.710510,282.014496 391.522247,280.083588 393.641022,278.025635 
	C393.965332,303.682556 394.009949,329.466583 393.936981,355.250275 
	C393.932190,356.932831 393.025391,358.612823 392.269104,360.563049 
	C390.609741,360.880371 389.219482,360.928650 387.415833,360.904572 
z"/>
<path fill="#FF9F56" opacity="1.000000" stroke="none" 
	d="
M395.955414,165.919937 
	C397.105682,164.694183 398.255951,163.468430 399.855042,162.480194 
	C400.535431,164.179443 400.966156,165.640808 400.968811,167.102966 
	C401.011078,190.335983 401.021149,213.569168 400.953674,236.802063 
	C400.948517,238.573975 400.305511,240.344025 399.958984,242.114960 
	C398.702820,240.977509 397.446686,239.840057 396.082458,237.930664 
	C395.968048,213.412445 395.961731,189.666183 395.955414,165.919937 
z"/>
<path fill="#FFAC44" opacity="1.000000" stroke="none" 
	d="
M370.888489,300.955139 
	C372.705566,299.020233 374.522675,297.085358 376.813354,295.410645 
	C377.521820,296.970337 377.958221,298.269318 377.961273,299.569336 
	C378.006042,318.548340 378.014343,337.527527 377.950897,356.506409 
	C377.946075,357.949280 377.334442,359.390137 377.004883,360.831909 
	C375.610687,360.880707 374.216492,360.929474 372.410034,360.447693 
	C371.998535,342.329285 372.035919,324.741211 371.951080,307.153778 
	C371.941101,305.085907 371.259003,303.021271 370.888489,300.955139 
z"/>
<path fill="#FFB437" opacity="1.000000" stroke="none" 
	d="
M420.875244,263.674805 
	C420.680603,265.871765 420.052643,267.809692 420.047302,269.749329 
	C419.980408,293.981293 419.990082,318.213531 420.034515,342.445587 
	C420.037506,344.073364 420.477997,345.700348 420.881958,347.718048 
	C419.932922,349.343903 418.816833,350.579376 417.406769,351.929169 
	C416.742615,350.472595 416.053467,348.902496 416.049683,347.330750 
	C415.983673,319.745209 415.994232,292.159515 416.023651,264.573853 
	C416.025024,263.270935 416.355896,261.968323 416.770874,260.323822 
	C417.491119,260.253632 417.973785,260.525238 418.701202,260.925262 
	C419.541046,261.841309 420.136139,262.628906 420.875244,263.674805 
z"/>
<path fill="#FF8675" opacity="1.000000" stroke="none" 
	d="
M154.804611,314.314209 
	C157.606476,316.448730 160.162308,318.920959 162.644836,322.012238 
	C162.381073,324.424286 162.033768,326.216583 162.025772,328.010376 
	C161.977066,338.949036 162.005447,349.888031 162.008118,360.826965 
	C157.654175,360.874084 153.300232,360.921234 148.489029,360.897644 
	C153.416107,360.468109 154.289581,357.317169 154.120529,352.468781 
	C153.744186,341.674957 153.977814,330.858887 154.028076,320.052185 
	C154.036453,318.251282 154.373444,316.451935 154.804611,314.314209 
z"/>
<path fill="#FFB437" opacity="1.000000" stroke="none" 
	d="
M377.418884,360.904236 
	C377.334442,359.390137 377.946075,357.949280 377.950897,356.506409 
	C378.014343,337.527527 378.006042,318.548340 377.961273,299.569336 
	C377.958221,298.269318 377.521820,296.970337 377.120239,295.280151 
	C378.750458,292.975037 380.547424,291.060608 382.650513,289.016418 
	C382.972229,310.991577 383.001465,333.096527 382.975739,355.201355 
	C382.973846,356.833801 382.576233,358.465759 382.190369,360.466888 
	C380.623077,360.882721 379.227997,360.929626 377.418884,360.904236 
z"/>
<path fill="#FFA350" opacity="1.000000" stroke="none" 
	d="
M370.584839,301.079163 
	C371.259003,303.021271 371.941101,305.085907 371.951080,307.153778 
	C372.035919,324.741211 371.998535,342.329285 371.996765,360.375183 
	C370.603424,360.880615 369.211121,360.927979 367.320923,360.505920 
	C366.548737,357.738220 366.049957,355.441223 366.037109,353.141510 
	C365.961823,339.653687 366.043610,326.164948 365.950500,312.677338 
	C365.937347,310.767517 365.258606,308.862305 364.887939,306.954956 
	C366.685638,305.037689 368.483398,303.120422 370.584839,301.079163 
z"/>
<path fill="#FF9464" opacity="1.000000" stroke="none" 
	d="
M395.675476,166.083496 
	C395.961731,189.666183 395.968048,213.412445 395.963440,237.633942 
	C394.035034,236.310410 392.117584,234.511612 390.242340,232.019272 
	C390.521729,229.705185 390.962128,228.085022 390.965088,226.464050 
	C390.998871,207.950211 390.966003,189.436249 390.950928,170.922318 
	C392.432465,169.363892 393.914001,167.805466 395.675476,166.083496 
z"/>
<path fill="#FF8871" opacity="1.000000" stroke="none" 
	d="
M390.669342,171.091171 
	C390.966003,189.436249 390.998871,207.950211 390.965088,226.464050 
	C390.962128,228.085022 390.521729,229.705185 390.116913,231.715698 
	C388.017761,230.291138 386.086243,228.476639 384.278442,226.022552 
	C384.600952,223.928970 384.969696,222.475281 384.972137,221.020966 
	C384.996796,206.322235 384.961548,191.623383 384.943115,176.924591 
	C386.757996,175.036392 388.572876,173.148209 390.669342,171.091171 
z"/>
<path fill="#FF995D" opacity="1.000000" stroke="none" 
	d="
M364.584442,307.079346 
	C365.258606,308.862305 365.937347,310.767517 365.950500,312.677338 
	C366.043610,326.164948 365.961823,339.653687 366.037109,353.141510 
	C366.049957,355.441223 366.548737,357.738220 366.907898,360.434875 
	C364.949951,360.880798 362.907196,360.928284 360.432281,360.443481 
	C360.000458,346.156830 360.043396,332.402191 359.951538,318.648438 
	C359.938873,316.748657 359.258545,314.853394 358.887329,312.956024 
	C360.685211,311.038605 362.483063,309.121185 364.584442,307.079346 
z"/>
<path fill="#FF9464" opacity="1.000000" stroke="none" 
	d="
M431.345886,337.985657 
	C431.033478,317.022308 431.022919,295.931488 431.020782,274.361816 
	C431.836212,274.521820 432.643188,275.160736 433.719849,275.952820 
	C434.579468,276.859222 435.169403,277.612427 435.886230,279.101135 
	C436.023560,297.595215 436.034027,315.353790 436.044525,333.112396 
	C434.578918,334.694336 433.113312,336.276276 431.345886,337.985657 
z"/>
<path fill="#FFC319" opacity="1.000000" stroke="none" 
	d="
M410.345795,358.985718 
	C410.031860,327.012115 410.005981,294.926819 409.968140,262.366333 
	C410.420563,261.307434 410.884949,260.723633 411.619080,260.046448 
	C412.259125,262.028687 412.946503,264.103546 412.951996,266.180176 
	C413.030396,295.840363 413.016663,325.500824 413.036133,355.636536 
	C412.242706,357.032593 411.438263,357.953308 410.345795,358.985718 
z"/>
<path fill="#FF7D7F" opacity="1.000000" stroke="none" 
	d="
M162.433075,360.902710 
	C162.005447,349.888031 161.977066,338.949036 162.025772,328.010376 
	C162.033768,326.216583 162.381073,324.424286 162.823166,322.292633 
	C163.074783,321.953949 163.538330,321.984863 163.769836,322.004547 
	C165.891983,324.157074 167.782654,326.289886 169.844666,328.703125 
	C170.009933,337.577942 170.085861,346.173828 169.932693,354.765625 
	C169.899734,356.613800 169.039474,358.447235 168.295303,360.556396 
	C166.306198,360.876373 164.582123,360.927429 162.433075,360.902710 
z"/>
<path fill="#FF7D7F" opacity="1.000000" stroke="none" 
	d="
M384.697296,177.053467 
	C384.961548,191.623383 384.996796,206.322235 384.972137,221.020966 
	C384.969696,222.475281 384.600952,223.928970 384.147583,225.716278 
	C381.997528,224.273697 380.102112,222.497787 378.083252,220.419861 
	C378.080475,208.332306 378.201233,196.546799 378.154663,184.378082 
	C379.551483,182.185638 381.115601,180.376389 382.839874,178.282623 
	C383.483826,177.726166 383.967651,177.454269 384.697296,177.053467 
z"/>
<path fill="#FFA949" opacity="1.000000" stroke="none" 
	d="
M400.070984,242.404144 
	C400.305511,240.344025 400.948517,238.573975 400.953674,236.802063 
	C401.021149,213.569168 401.011078,190.335983 400.968811,167.102966 
	C400.966156,165.640808 400.535431,164.179443 400.134277,162.330765 
	C400.792419,161.047379 401.620117,160.150955 402.798157,159.520203 
	C403.432190,161.909164 403.957642,164.031860 403.962738,166.155792 
	C404.020935,190.373413 404.025391,214.591293 403.954498,238.808838 
	C403.948334,240.911621 403.304962,243.012543 402.957550,245.114319 
	C402.032684,244.307327 401.107819,243.500336 400.070984,242.404144 
z"/>
<path fill="#FF8871" opacity="1.000000" stroke="none" 
	d="
M355.001068,360.835327 
	C352.955170,360.882141 350.909271,360.928955 348.517914,360.504700 
	C348.448303,351.588165 348.859528,343.143890 348.936310,334.696625 
	C348.969055,331.097504 348.302765,327.492004 347.954163,323.889404 
	C349.749817,321.976929 351.545471,320.064423 353.813477,318.412170 
	C354.523499,320.794464 354.954742,322.915375 354.966705,325.038666 
	C355.033997,336.970581 355.000305,348.903046 355.001068,360.835327 
z"/>
<path fill="#FF8278" opacity="1.000000" stroke="none" 
	d="
M347.646545,324.021729 
	C348.302765,327.492004 348.969055,331.097504 348.936310,334.696625 
	C348.859528,343.143890 348.448303,351.588165 348.084747,360.431519 
	C345.950897,360.878906 343.904755,360.928467 341.513550,360.507080 
	C341.096283,350.321198 341.024048,340.606293 340.951813,330.891388 
	C343.080841,328.645599 345.209869,326.399841 347.646545,324.021729 
z"/>
<path fill="#FF7D7F" opacity="1.000000" stroke="none" 
	d="
M442.729553,284.990051 
	C443.898743,286.211914 444.815216,287.292816 445.870972,289.121307 
	C446.023529,300.947906 446.036743,312.026886 446.049927,323.105896 
	C444.584229,324.688171 443.118500,326.270477 441.183960,327.589783 
	C440.480835,326.035278 440.049164,324.744720 440.043152,323.452179 
	C439.989410,311.869171 439.971252,300.285553 440.055145,288.702911 
	C440.066742,287.099243 440.691315,285.500031 441.032074,283.898743 
	C441.513672,284.215546 441.995270,284.532318 442.729553,284.990051 
z"/>
<path fill="#FF9464" opacity="1.000000" stroke="none" 
	d="
M355.335754,360.906006 
	C355.000305,348.903046 355.033997,336.970581 354.966705,325.038666 
	C354.954742,322.915375 354.523499,320.794464 354.118835,318.282104 
	C355.397797,316.326813 356.843811,314.761871 358.588562,313.076477 
	C359.258545,314.853394 359.938873,316.748657 359.951538,318.648438 
	C360.043396,332.402191 360.000458,346.156830 359.999756,360.368774 
	C359.548279,360.874115 359.097229,360.921844 358.205383,360.804565 
	C357.479523,360.520203 357.232269,360.583374 357.022888,360.829041 
	C356.572083,360.878265 356.121277,360.927490 355.335754,360.906006 
z"/>
<path fill="#FF738A" opacity="1.000000" stroke="none" 
	d="
M340.643127,331.025024 
	C341.024048,340.606293 341.096283,350.321198 341.080078,360.434143 
	C339.273895,360.880981 337.556122,360.929810 335.328369,360.507599 
	C334.543549,356.245789 334.321045,352.450256 333.977753,348.665710 
	C333.683807,345.424866 333.251495,342.196594 332.880402,338.962769 
	C335.365082,336.361389 337.849762,333.760040 340.643127,331.025024 
z"/>
<path fill="#FF8871" opacity="1.000000" stroke="none" 
	d="
M440.883148,283.631897 
	C440.691315,285.500031 440.066742,287.099243 440.055145,288.702911 
	C439.971252,300.285553 439.989410,311.869171 440.043152,323.452179 
	C440.049164,324.744720 440.480835,326.035278 440.882172,327.716980 
	C439.582245,329.690491 438.115326,331.273804 436.346466,332.984741 
	C436.034027,315.353790 436.023560,297.595215 436.021881,279.357025 
	C436.513214,279.196899 436.995728,279.516357 437.733307,279.974365 
	C438.903656,281.196930 439.818939,282.280975 440.883148,283.631897 
z"/>
<path fill="#FFAC44" opacity="1.000000" stroke="none" 
	d="
M403.050964,245.383575 
	C403.304962,243.012543 403.948334,240.911621 403.954498,238.808838 
	C404.025391,214.591293 404.020935,190.373413 403.962738,166.155792 
	C403.957642,164.031860 403.432190,161.909164 403.067413,159.372391 
	C403.799194,158.044067 404.611969,157.129257 405.694092,156.062988 
	C405.975403,184.442291 405.997192,212.973038 405.973816,241.503754 
	C405.972473,243.130127 405.601105,244.756210 405.146851,246.715302 
	C404.309296,246.583054 403.726868,246.117935 403.050964,245.383575 
z"/>
<path fill="#FF6796" opacity="1.000000" stroke="none" 
	d="
M178.697449,338.207886 
	C180.484253,339.209930 181.954269,340.445831 183.701294,341.840698 
	C184.888153,343.138489 185.798019,344.277283 186.697556,346.073608 
	C186.147247,351.519623 184.335617,356.426025 187.995117,360.824738 
	C185.618668,360.875732 183.242203,360.926758 180.426178,360.901245 
	C179.105743,360.119843 177.449280,359.398071 177.464172,358.712616 
	C177.610931,351.952209 178.035126,345.197845 178.697449,338.207886 
z"/>
<path fill="#FF6796" opacity="1.000000" stroke="none" 
	d="
M332.575897,339.089172 
	C333.251495,342.196594 333.683807,345.424866 333.977753,348.665710 
	C334.321045,352.450256 334.543549,356.245789 334.903961,360.434753 
	C332.286194,360.879639 329.582916,360.926331 326.435730,360.449951 
	C325.643860,355.583710 325.295837,351.240570 324.947815,346.897461 
	C327.389008,344.336823 329.830200,341.776215 332.575897,339.089172 
z"/>
<path fill="#FF6F8F" opacity="1.000000" stroke="none" 
	d="
M446.355103,322.975677 
	C446.036743,312.026886 446.023529,300.947906 446.014343,289.392700 
	C446.474487,289.213989 446.930603,289.511505 447.627655,289.934692 
	C449.154114,291.495667 450.439667,292.930939 451.795502,295.068634 
	C451.932465,302.875732 451.999146,309.980408 452.065796,317.085083 
	C450.263947,319.005188 448.462097,320.925323 446.355103,322.975677 
z"/>
<path fill="#FF5BA3" opacity="1.000000" stroke="none" 
	d="
M452.373444,316.954407 
	C451.999146,309.980408 451.932465,302.875732 451.939819,295.354645 
	C452.013855,294.938232 452.417480,295.024292 452.620026,295.061157 
	C454.350250,296.661194 455.877930,298.224335 457.689148,299.956696 
	C459.598816,301.887146 461.224884,303.648407 463.027588,305.691864 
	C459.696503,309.590607 456.188782,313.207184 452.373444,316.954407 
z"/>
<path fill="#FF5BA3" opacity="1.000000" stroke="none" 
	d="
M188.452942,360.898834 
	C184.335617,356.426025 186.147247,351.519623 186.850769,346.346283 
	C187.485306,346.234680 187.956299,346.507965 188.673004,346.895264 
	C191.079117,349.248047 193.239532,351.486816 195.686432,353.893219 
	C197.795929,355.972931 199.618927,357.885010 201.721069,359.980621 
	C197.637085,360.433746 193.273926,360.703339 188.452942,360.898834 
z"/>
<path fill="#FF5BA3" opacity="1.000000" stroke="none" 
	d="
M360.297546,202.974350 
	C361.547760,200.751038 363.110748,198.668533 364.843445,196.305573 
	C366.564392,194.837524 368.115601,193.649918 370.970673,191.464096 
	C370.970673,199.138824 370.970673,205.646545 370.959534,212.628754 
	C367.502380,209.773865 364.056366,206.444519 360.297546,202.974350 
z"/>
<path fill="#FF5BA3" opacity="1.000000" stroke="none" 
	d="
M324.638672,347.030518 
	C325.295837,351.240570 325.643860,355.583710 325.989838,360.377625 
	C321.215240,360.828400 316.442657,360.828400 310.248291,360.828400 
	C315.451324,355.779205 319.890411,351.471405 324.638672,347.030518 
z"/>
<path fill="#FF995D" opacity="1.000000" stroke="none" 
	d="
M357.261780,360.890076 
	C357.232269,360.583374 357.479523,360.520203 357.871002,360.732300 
	C357.977356,360.825012 357.500641,360.951172 357.261780,360.890076 
z"/>
</svg>